:SAMPLES-PER-SECOND 30
:FULLY-SPECIFIED
:DEGREES
122
root  21.16431139 38.19333474 -21.69142295 -4.441790104 -5.847489834 -3.097700119
lowerback  7.390880108 0.7791360021 5.174870014
upperback  3.217220068 1.393069983 1.042739987
thorax  -0.7144899964 0.7305729985 -1.935760021
lowerneck  -11.1171999 2.932569981 -0.1214059964
upperneck  -1.523040056 3.964540005 -2.627769947
head  1.45322001 1.913100004 -0.6242079735
lclavicle  0 -1.620099928e-014 -1.431250036e-014
lhumerus  -46.32389832 19.83959961 74.26010132
lradius  -3.319718683e-031 -1.20345831e-031 19.92650032
lwrist  -2.824900031e-030 -3.531125038e-030 14.17319965
lhand  -1.522208093e-030 -21.89089966 22.84740067
lfingers  90 7.125020027 -90
lthumb  90.61603193 7.755020578 85.4441456
rclavicle  0 -1.620099928e-014 -1.431250036e-014
rhumerus  -17.10160065 12.74730015 -86.48169708
rradius  2.658506501e-031 2.324045442e-031 41.15969849
rwrist  2.824900031e-030 -3.531125038e-030 -16.03800011
rhand  1.570731925e-030 -25.9428997 18.57430077
rfingers  -90 -7.125020027 -90
rthumb  -89.60083768 -33.59330664 -89.2785978
rfemur  4.589719772 4.377649784 29.01420021
rtibia  -0 0 23.3362999
rfoot  -4.693897815e-032 -19.88960075 -0.8998979926
rtoes  -1.575397198 19.94038992 -85.38945295
lfemur  -27.37299919 -2.150890112 -17.65340042
ltibia  -0 0 44.11339951
lfoot  -0 -9.821339607 10.50059986
ltoes  -3.695914299 -19.66929668 -100.8636129
123
root  21.17966629 38.21111063 -21.32437849 -4.244810104 -6.004879951 -3.075069904
lowerback  7.132060051 0.842904985 5.154329777
upperback  3.242609978 1.458150029 1.008949995
thorax  -0.5399019718 0.7677090168 -1.958019972
lowerneck  -10.87020016 3.09010005 0.1373019964
upperneck  -1.671830058 4.139619827 -2.732860088
head  1.372849941 2.000819921 -0.6973839998
lclavicle  0 -1.620099928e-014 -1.431250036e-014
lhumerus  -46.81949997 20.17499924 73.91110229
lradius  -3.317773577e-031 -1.208810377e-031 20.01889992
lwrist  0 1.412450015e-030 14.03800011
lhand  -1.522208093e-030 -21.89089966 22.84740067
lfingers  90 7.125020027 -90
lthumb  90.61603193 7.755020578 85.4441456
rclavicle  0 -1.620099928e-014 -1.431250036e-014
rhumerus  -16.37150002 13.28279972 -86.14440155
rradius  2.604088785e-031 2.384861765e-031 42.48389816
rwrist  0 -2.824900031e-030 -16.65229988
rhand  1.570731925e-030 -25.9428997 18.57430077
rfingers  -90 -7.125020027 -90
rthumb  -89.60083768 -33.59330664 -89.2785978
rfemur  5.487909794 4.396570206 28.88809967
rtibia  -0 0 22.29599953
rfoot  -5.28116546e-032 -19.90550041 -0.5841069818
rtoes  -1.575397198 19.94038992 -85.38945295
lfemur  -27.52779961 -2.693639994 -17.48480034
ltibia  -0 0 41.21559906
lfoot  -0 -9.893969536 11.23840046
ltoes  -3.695914299 -19.66929668 -100.8636129
124
root  21.19264377 38.23133454 -20.95948918 -4.084400177 -6.239160061 -2.641000032
lowerback  6.883080006 0.9359080195 4.718939781
upperback  3.278729916 1.536309958 0.8708069921
thorax  -0.3685570061 0.808085978 -1.856369972
lowerneck  -10.66259956 3.163189888 -0.103207998
upperneck  -1.923529983 4.253200054 -2.463979959
head  1.242580056 2.068909883 -0.5723940134
lclavicle  0 -1.620099928e-014 -1.431250036e-014
lhumerus  -47.30619812 20.56819916 73.58339691
lradius  -3.314576282e-031 -1.217550043e-031 20.16990089
lwrist  0 -4.943575054e-030 13.96000004
lhand  -1.522208093e-030 -21.89089966 22.84740067
lfingers  90 7.125020027 -90
lthumb  90.61603193 7.755020578 85.4441456
rclavicle  0 -1.620099928e-014 -1.431250036e-014
rhumerus  -15.60599995 13.87040043 -85.78649902
rradius  2.560517758e-031 2.431582375e-031 43.52050018
rwrist  2.824900031e-030 -2.118675023e-030 -16.98950005
rhand  1.570731925e-030 -25.9428997 18.57430077
rfingers  -90 -7.125020027 -90
rthumb  -89.60083768 -33.59330664 -89.2785978
rfemur  6.437310219 4.549849987 28.34519958
rtibia  -0 0 21.16180038
rfoot  -4.982557971e-032 -19.73940086 -0.3819819987
rtoes  -1.575397198 19.94038992 -85.38945295
lfemur  -27.60440063 -3.077090025 -17.77930069
ltibia  -0 0 38.38539886
lfoot  -0 -10.12849998 12.1651001
ltoes  -3.695914299 -19.66929668 -100.8636129
125
root  21.20379951 38.23511019 -20.59339989 -4.045430183 -6.447539806 -2.47191
lowerback  6.866759777 0.9765560031 4.570310116
upperback  3.284090042 1.579439998 0.8118020296
thorax  -0.3540509939 0.8289110065 -1.836459994
lowerneck  -10.95020008 3.259200096 -0.09950730205
upperneck  -1.574689984 4.389150143 -2.420239925
head  1.406669974 2.131959915 -0.5459100008
lclavicle  0 -1.620099928e-014 -1.431250036e-014
lhumerus  -47.87149811 20.98060036 73.16790009
lradius  -3.312461187e-031 -1.223292655e-031 20.26919937
lwrist  -2.824900031e-030 -4.943575054e-030 13.83230019
lhand  -1.522208093e-030 -21.89089966 22.84740067
lfingers  90 7.125020027 -90
lthumb  90.61603193 7.755020578 85.4441456
rclavicle  0 -1.620099928e-014 -1.431250036e-014
rhumerus  -15.0376997 14.53240013 -85.48200226
rradius  2.514235732e-031 2.479407736e-031 44.60039902
rwrist  2.824900031e-030 -4.943575054e-030 -17.22890091
rhand  1.570731925e-030 -25.9428997 18.57430077
rfingers  -90 -7.125020027 -90
rthumb  -89.60083768 -33.59330664 -89.2785978
rfemur  7.570750237 4.580870152 28.11800003
rtibia  -0 0 19.97789955
rfoot  -4.971002196e-032 -19.3647995 -0.2778699994
rtoes  -1.575397198 19.94038992 -85.38945295
lfemur  -27.62059975 -3.481580019 -17.73590088
ltibia  -0 0 35.72069931
lfoot  -0 -10.43809986 12.91730022
ltoes  -3.695914299 -19.66929668 -100.8636129
126
root  21.21753392 38.24244522 -20.22473343 -3.996370077 -6.634379864 -2.942480087
lowerback  6.979159832 0.928474009 5.037990093
upperback  3.225939989 1.554090023 0.9369149804
thorax  -0.4671269953 0.8163170218 -1.970720053
lowerneck  -10.96329975 3.474910021 0.3855639994
upperneck  -1.367169976 4.630400181 -2.816610098
head  1.505079985 2.238980055 -0.7393190265
lclavicle  0 -1.620099928e-014 -1.431250036e-014
lhumerus  -48.54790115 21.29800034 72.751297
lradius  -3.310293181e-031 -1.229147302e-031 20.37050056
lwrist  0 -2.824900031e-030 13.95979977
lhand  -1.522208093e-030 -21.89089966 22.84740067
lfingers  90 7.125020027 -90
lthumb  90.61603193 7.755020578 85.4441456
rclavicle  0 -1.620099928e-014 -1.431250036e-014
rhumerus  -14.5710001 15.32900047 -85.22360229
rradius  2.460707716e-031 2.532540537e-031 45.82419968
rwrist  0 -2.824900031e-030 -17.46649933
rhand  1.570731925e-030 -25.9428997 18.57430077
rfingers  -90 -7.125020027 -90
rthumb  -89.60083768 -33.59330664 -89.2785978
rfemur  8.707799911 4.469810009 28.58379936
rtibia  -0 0 18.87360001
rfoot  -4.961870143e-032 -19.0625 -0.3287450075
rtoes  -1.575397198 19.94038992 -85.38945295
lfemur  -27.6487999 -4.172830105 -16.89100075
ltibia  -0 0 33.26290131
lfoot  -0 -10.63790035 13.7336998
ltoes  -3.695914299 -19.66929668 -100.8636129
127
root  21.24177828 38.23777747 -19.84499984 -3.910480022 -6.847439766 -3.318000078
lowerback  6.897900105 0.936883986 5.422579765
upperback  3.270420074 1.583119988 1.090450048
thorax  -0.3661420047 0.8364250064 -2.026570082
lowerneck  -10.57970047 3.566649914 0.400368005
upperneck  -1.824110031 4.744050026 -3.099119902
head  1.299929976 2.297139883 -0.8351749778
lclavicle  0 -1.620099928e-014 -1.431250036e-014
lhumerus  -48.88510132 21.66580009 72.61620331
lradius  -3.31279198e-031 -1.222396555e-031 20.25370026
lwrist  -2.824900031e-030 -2.824900031e-030 14.11690044
lhand  -1.522208093e-030 -21.89089966 22.84740067
lfingers  90 7.125020027 -90
lthumb  90.61603193 7.755020578 85.4441456
rclavicle  0 -1.620099928e-014 -1.431250036e-014
rhumerus  -13.76850033 16.14229965 -84.69830322
rradius  2.416587967e-031 2.574674083e-031 46.81409836
rwrist  2.824900031e-030 -5.649800062e-030 -17.91970062
rhand  1.570731925e-030 -25.9428997 18.57430077
rfingers  -90 -7.125020027 -90
rthumb  -89.60083768 -33.59330664 -89.2785978
rfemur  9.763970375 4.323999882 28.8628006
rtibia  -0 0 17.85169983
rfoot  -4.954768539e-032 -18.8234005 -0.1980369985
rtoes  -1.575397198 19.94038992 -85.38945295
lfemur  -27.64109993 -4.804130077 -16.17550087
ltibia  -0 0 31.00569916
lfoot  -0 -10.98620033 14.5472002
ltoes  -3.695914299 -19.66929668 -100.8636129
128
root  21.26557808 38.21066609 -19.4648217 -3.953540087 -7.100530148 -3.176379919
lowerback  6.878940105 1.019400001 5.316349983
upperback  3.356899977 1.68106997 1.078459978
thorax  -0.2619749904 0.8882679939 -1.98416996
lowerneck  -10.21150017 3.67663002 0.3581080139
upperneck  -2.366559982 4.88214016 -3.281680107
head  1.067700028 2.37203002 -0.8896759748
lclavicle  0 -1.620099928e-014 -1.431250036e-014
lhumerus  -49.11510086 21.90069962 72.60359955
lradius  -3.315230349e-031 -1.215767976e-031 20.13909912
lwrist  0 -7.062250077e-031 14.13930035
lhand  -1.522208093e-030 -21.89089966 22.84740067
lfingers  90 7.125020027 -90
lthumb  90.61603193 7.755020578 85.4441456
rclavicle  0 -1.620099928e-014 -1.431250036e-014
rhumerus  -12.97799969 16.65600014 -84.19110107
rradius  2.377544166e-031 2.610771491e-031 47.67689896
rwrist  2.824900031e-030 -7.062250077e-031 -18.27099991
rhand  1.570731925e-030 -25.9428997 18.57430077
rfingers  -90 -7.125020027 -90
rthumb  -89.60083768 -33.59330664 -89.2785978
rfemur  10.93000031 4.137050152 28.51490021
rtibia  -0 0 16.76989937
rfoot  -4.650501823e-032 -18.35479927 0.3221980035
rtoes  -1.575397198 19.94038992 -85.38945295
lfemur  -27.48789978 -5.033699989 -16.15740013
ltibia  -0 0 28.96940041
lfoot  -0 -11.28730011 14.95170021
ltoes  -3.695914299 -19.66929668 -100.8636129
